<svg width="22" height="22" viewBox="0 0 22 22" fill="none" xmlns="http://www.w3.org/2000/svg">
<path fill-rule="evenodd" clip-rule="evenodd" d="M3.50215 3.49132C7.61376 -0.61449 14.2975 -0.570834 18.4343 3.56592C22.5728 7.70446 22.6147 14.3922 18.5036 18.5034C14.3924 22.6145 7.70467 22.5726 3.56613 18.4341C1.11362 15.9816 0.100869 12.6357 0.535754 9.463C0.596691 9.01842 1.00649 8.70742 1.45106 8.76836C1.89564 8.8293 2.20664 9.23909 2.1457 9.68367C1.7774 12.3707 2.63455 15.2044 4.71517 17.285C8.23003 20.7999 13.8888 20.82 17.3545 17.3543C20.8202 13.8886 20.8001 8.22983 17.2852 4.71497C13.7722 1.20192 8.11737 1.18001 4.6512 4.64037L5.46121 4.64444C5.90994 4.64669 6.27188 5.01229 6.26962 5.46101C6.26737 5.90974 5.90177 6.27167 5.45305 6.26942L2.69537 6.25556C2.24983 6.25332 1.8892 5.89269 1.88696 5.44715L1.8731 2.68947C1.87085 2.24075 2.23278 1.87515 2.68151 1.8729C3.13023 1.87064 3.49583 2.23258 3.49808 2.68131L3.50215 3.49132ZM11.0001 5.85408C11.4488 5.85408 11.8126 6.21785 11.8126 6.66658V10.6634L14.283 13.1337C14.6003 13.451 14.6003 13.9655 14.283 14.2828C13.9657 14.6001 13.4512 14.6001 13.1339 14.2828L10.1876 11.3365V6.66658C10.1876 6.21785 10.5514 5.85408 11.0001 5.85408Z" fill="#3263DF"/>
</svg>
