<svg width="28" height="28" viewBox="0 0 28 28" fill="none" xmlns="http://www.w3.org/2000/svg">
<path d="M13.9997 15.4583C14.4829 15.4583 14.8747 15.8501 14.8747 16.3333V21C14.8747 21.4833 14.4829 21.875 13.9997 21.875C13.5164 21.875 13.1247 21.4833 13.1247 21V16.3333C13.1247 15.8501 13.5164 15.4583 13.9997 15.4583Z" fill="#1C274C"/>
<path fill-rule="evenodd" clip-rule="evenodd" d="M6.12468 10.8532V9.33334C6.12468 4.9841 9.65043 1.45834 13.9997 1.45834C18.3489 1.45834 21.8747 4.9841 21.8747 9.33334V10.8532C22.1393 10.8718 22.3887 10.8961 22.6234 10.9276C23.6735 11.0688 24.5577 11.3708 25.2599 12.0731C25.9622 12.7753 26.2642 13.6595 26.4054 14.7096C26.5414 15.7211 26.5414 17.0071 26.5413 18.6027V18.7307C26.5414 20.3262 26.5414 21.6123 26.4054 22.6237C26.2642 23.6738 25.9622 24.558 25.2599 25.2603C24.5577 25.9625 23.6735 26.2645 22.6234 26.4057C21.6119 26.5417 20.3259 26.5417 18.7304 26.5417H9.269C7.67347 26.5417 6.38743 26.5417 5.37597 26.4057C4.32584 26.2645 3.44165 25.9625 2.73942 25.2603C2.03718 24.558 1.73514 23.6738 1.59395 22.6237C1.45797 21.6123 1.45798 20.3262 1.45801 18.7307V18.6027C1.45798 17.0071 1.45797 15.7211 1.59395 14.7096C1.73514 13.6595 2.03718 12.7753 2.73942 12.0731C3.44165 11.3708 4.32584 11.0688 5.37597 10.9276C5.61061 10.8961 5.86004 10.8718 6.12468 10.8532ZM7.87468 9.33334C7.87468 5.9506 10.6169 3.20834 13.9997 3.20834C17.3824 3.20834 20.1247 5.9506 20.1247 9.33334V10.7957C19.6889 10.7917 19.2245 10.7917 18.7304 10.7917H9.26899C8.77488 10.7917 8.31046 10.7917 7.87468 10.7957V9.33334ZM5.60915 12.662C4.75308 12.7771 4.29974 12.9876 3.97685 13.3105C3.65396 13.6334 3.44344 14.0867 3.32835 14.9428C3.20987 15.8241 3.20801 16.992 3.20801 18.6667C3.20801 20.3413 3.20987 21.5093 3.32835 22.3905C3.44344 23.2466 3.65396 23.6999 3.97685 24.0228C4.29974 24.3457 4.75308 24.5562 5.60915 24.6713C6.49039 24.7898 7.65836 24.7917 9.33301 24.7917H18.6663C20.341 24.7917 21.509 24.7898 22.3902 24.6713C23.2463 24.5562 23.6996 24.3457 24.0225 24.0228C24.3454 23.6999 24.5559 23.2466 24.671 22.3905C24.7895 21.5093 24.7913 20.3413 24.7913 18.6667C24.7913 16.992 24.7895 15.8241 24.671 14.9428C24.5559 14.0867 24.3454 13.6334 24.0225 13.3105C23.6996 12.9876 23.2463 12.7771 22.3902 12.662C21.509 12.5435 20.341 12.5417 18.6663 12.5417H9.33301C7.65836 12.5417 6.49039 12.5435 5.60915 12.662Z" fill="#1C274C"/>
</svg>
