<svg width="24" height="18" viewBox="0 0 24 18" fill="none" xmlns="http://www.w3.org/2000/svg">
<path fill-rule="evenodd" clip-rule="evenodd" d="M14.0198 2.26539C13.6799 2.23025 13.2401 2.22925 12.5719 2.22925H12.0001C11.5514 2.22925 11.1876 1.86548 11.1876 1.41675C11.1876 0.968019 11.5514 0.60425 12.0001 0.60425L12.6119 0.604249C13.2294 0.604228 13.7536 0.604211 14.1869 0.649007C14.6482 0.696702 15.0745 0.80027 15.4773 1.04919C15.88 1.2981 16.1633 1.6331 16.4123 2.02436C16.6318 2.36935 16.8518 2.80374 17.1064 3.31258L18.3573 3.31258C18.6648 3.31256 18.9471 3.31254 19.1824 3.33367C19.4366 3.35651 19.7138 3.40897 19.982 3.56217C20.2762 3.73019 20.52 3.97398 20.688 4.26818C20.8412 4.53641 20.8937 4.81353 20.9165 5.06777C20.9376 5.30302 20.9376 5.58536 20.9376 5.89284V5.9242L20.9377 5.99412C20.9383 6.27553 20.939 6.57683 20.8477 6.86278C20.7865 7.05433 20.6952 7.23492 20.5773 7.39778C20.4013 7.64093 20.1583 7.81908 19.9313 7.98547L19.875 8.02685L19.5743 8.24835L20.102 9.3037C22.1008 9.55835 23.6459 11.2654 23.6459 13.3334C23.6459 15.5771 21.8271 17.3959 19.5834 17.3959C17.618 17.3959 15.9786 16.0002 15.6022 14.1459H10.023C9.64659 16.0002 8.00716 17.3959 6.04176 17.3959C4.07294 17.3959 2.43123 15.9954 2.05858 14.1362C1.14911 14.0441 0.43215 13.3142 0.360109 12.3988C0.35416 12.3232 0.354209 12.2414 0.354256 12.1626L0.354265 12.1418L0.354263 12.1005C0.354242 11.7375 0.354228 11.5067 0.370128 11.3047C0.568723 8.78128 2.57297 6.77704 5.09636 6.57845C5.29838 6.56255 5.52918 6.56256 5.89214 6.56258L5.93343 6.56258L6.63976 6.56258C7.61311 6.56255 8.42477 6.56252 9.06911 6.64915C9.74922 6.74059 10.3633 6.94173 10.8567 7.43516C11.3501 7.92859 11.5512 8.54262 11.6427 9.22273C11.7293 9.86708 11.7293 10.6787 11.7293 11.6521L11.7293 12.5209H15.6022C15.8971 11.0681 16.9673 9.89679 18.3622 9.45769L15.7211 4.17552C15.4222 3.57786 15.2247 3.18497 15.0413 2.89671C14.868 2.62434 14.7438 2.50617 14.6229 2.43149C14.5021 2.35682 14.3409 2.29859 14.0198 2.26539ZM10.1043 12.5209V11.7084C10.1043 10.6641 10.1025 9.96255 10.0322 9.43926C9.96497 8.93934 9.84881 8.72539 9.70763 8.58421C9.56646 8.44303 9.3525 8.32688 8.85259 8.25966C8.3293 8.18931 7.62777 8.18758 6.58343 8.18758H5.93343C5.51558 8.18758 5.35374 8.18821 5.22385 8.19844C3.49732 8.33432 2.126 9.70564 1.99012 11.4322C1.9799 11.5621 1.97926 11.7239 1.97926 12.1418C1.97926 12.1942 1.97928 12.2255 1.97961 12.2491C1.99044 12.3812 2.11899 12.5098 2.25109 12.5206L10.1043 12.5209ZM3.74296 14.1459C4.07758 15.0926 4.98046 15.7709 6.04176 15.7709C7.10306 15.7709 8.00595 15.0926 8.34056 14.1459H3.74296ZM17.1459 13.3334C17.1459 11.9872 18.2372 10.8959 19.5834 10.8959C20.9296 10.8959 22.0209 11.9872 22.0209 13.3334C22.0209 14.6796 20.9296 15.7709 19.5834 15.7709C18.2372 15.7709 17.1459 14.6796 17.1459 13.3334ZM18.8368 6.77333L18.9112 6.71854C19.061 6.60816 19.1452 6.54569 19.2061 6.49504C19.2436 6.46382 19.2576 6.44883 19.2612 6.44465C19.278 6.42141 19.291 6.39566 19.2997 6.36834C19.2976 6.37511 19.3035 6.3637 19.3076 6.29423C19.3123 6.21517 19.3126 6.11029 19.3126 5.9242C19.3126 5.57493 19.3118 5.36682 19.298 5.21317C19.2897 5.12031 19.2788 5.08157 19.2751 5.07094C19.2518 5.03137 19.2188 4.99838 19.1792 4.97507C19.1686 4.9714 19.1299 4.96049 19.037 4.95215C18.8834 4.93835 18.6752 4.93758 18.326 4.93758H17.9189L18.8368 6.77333Z" fill="#3263DF"/>
</svg>
