<svg width="26" height="26" viewBox="0 0 26 26" fill="none" xmlns="http://www.w3.org/2000/svg">
<path fill-rule="evenodd" clip-rule="evenodd" d="M6.90471 5.12498H19.0954C20.0478 5.12497 20.816 5.12496 21.4379 5.17599C22.0784 5.22854 22.6408 5.33955 23.1608 5.60581C23.9778 6.02418 24.6425 6.68893 25.0609 7.50597C25.3272 8.02595 25.4382 8.58836 25.4907 9.22877C25.5418 9.85075 25.5417 10.6189 25.5417 11.5713V11.6089C25.5417 11.6423 25.5418 11.6759 25.5419 11.7097C25.5431 12.1041 25.5443 12.5241 25.392 12.8995C25.2611 13.2219 25.0501 13.5055 24.7789 13.7235C24.6552 13.8229 24.5182 13.9017 24.3745 13.9675C24.3711 15.8485 24.347 17.7492 24.1782 19.3775C24.0791 20.3332 23.9271 21.2305 23.6859 21.9956C23.4486 22.7483 23.0983 23.4608 22.5437 23.9538C21.583 24.8077 20.3739 25.1842 18.8646 25.3646C17.383 25.5417 15.4841 25.5417 13.0598 25.5416H12.9403C10.5161 25.5417 8.61712 25.5417 7.13556 25.3646C5.62622 25.1842 4.41712 24.8077 3.45644 23.9538C2.90187 23.4608 2.55153 22.7483 2.31426 21.9956C2.07308 21.2305 1.92102 20.3332 1.82194 19.3775C1.65315 17.7492 1.62907 15.8485 1.62564 13.9675C1.48198 13.9017 1.34495 13.8229 1.22123 13.7235C0.950012 13.5055 0.738991 13.2219 0.608187 12.8995C0.455852 12.5241 0.457066 12.1041 0.458206 11.7097C0.458304 11.6759 0.458401 11.6423 0.458401 11.6089L0.458401 11.5713C0.458392 10.6189 0.458385 9.85074 0.509414 9.22877C0.561958 8.58836 0.672975 8.02595 0.939235 7.50597C1.3576 6.68893 2.02235 6.02418 2.83939 5.60581C3.35937 5.33955 3.92178 5.22854 4.56219 5.17599C5.18416 5.12496 5.95232 5.12497 6.90471 5.12498ZM3.37751 14.5267C3.38544 16.203 3.41919 17.8135 3.56261 19.197C3.65575 20.0954 3.79201 20.8627 3.9833 21.4695C4.17851 22.0887 4.4048 22.4554 4.61908 22.6458C5.19609 23.1587 5.99327 23.4656 7.34322 23.627C8.70881 23.7902 10.5031 23.7916 13.0001 23.7916C15.497 23.7916 17.2913 23.7902 18.6569 23.627C20.0069 23.4656 20.804 23.1587 21.3811 22.6458C21.5953 22.4554 21.8216 22.0887 22.0168 21.4695C22.2081 20.8627 22.3444 20.0954 22.4375 19.197C22.5809 17.8135 22.6147 16.203 22.6226 14.5267L16.7917 16.276V16.6884C16.7917 17.2847 16.4287 17.8209 15.875 18.0424L15.0582 18.3691C13.737 18.8976 12.2631 18.8976 10.9419 18.3691L10.1251 18.0424C9.57146 17.8209 9.2084 17.2847 9.2084 16.6884V16.276L3.37751 14.5267ZM9.2084 14.449L2.91723 12.5616C2.66591 12.4862 2.52067 12.4421 2.41419 12.4018C2.34892 12.3771 2.32294 12.3626 2.31618 12.3583C2.27841 12.3277 2.24891 12.288 2.23038 12.243C2.22829 12.2353 2.22184 12.2063 2.21693 12.1367C2.2089 12.0231 2.2084 11.8713 2.2084 11.6089C2.2084 10.6101 2.20909 9.91385 2.25355 9.37187C2.29718 8.84017 2.37849 8.53481 2.4969 8.30357C2.74792 7.81335 3.14677 7.4145 3.63699 7.16348C3.86823 7.04507 4.17359 6.96376 4.70529 6.92013C5.24727 6.87567 5.94352 6.87498 6.94233 6.87498H19.0578C20.0566 6.87498 20.7529 6.87567 21.2948 6.92013C21.8265 6.96376 22.1319 7.04507 22.3631 7.16348C22.8534 7.4145 23.2522 7.81335 23.5032 8.30357C23.6216 8.53481 23.703 8.84017 23.7466 9.37187C23.7911 9.91385 23.7917 10.6101 23.7917 11.6089C23.7917 11.8713 23.7912 12.0231 23.7832 12.1367C23.7783 12.2063 23.7719 12.2353 23.7698 12.243C23.7512 12.288 23.7217 12.3277 23.684 12.3583C23.6772 12.3625 23.6512 12.3771 23.5859 12.4018C23.4795 12.4421 23.3342 12.4862 23.0829 12.5616L16.7917 14.449V14.1666C16.7917 13.3612 16.1388 12.7083 15.3334 12.7083H10.6667C9.86132 12.7083 9.2084 13.3612 9.2084 14.1666V14.449ZM23.6859 12.3571L23.684 12.3583L23.6859 12.3571ZM23.7691 12.2452L23.7698 12.243L23.7691 12.2452ZM2.23107 12.2452L2.23038 12.243L2.23107 12.2452ZM2.31427 12.3571L2.31618 12.3583L2.31427 12.3571ZM10.9584 14.4583V16.4909L11.5919 16.7443C12.4959 17.1059 13.5043 17.1059 14.4083 16.7443L15.0417 16.4909V14.4583H10.9584Z" fill="#1C274D"/>
<path fill-rule="evenodd" clip-rule="evenodd" d="M13.0003 2.20831C11.8587 2.20831 10.8852 2.93751 10.5244 3.95824C10.3634 4.41386 9.86349 4.65267 9.40786 4.49163C8.95223 4.33059 8.71342 3.83068 8.87446 3.37506C9.47464 1.677 11.094 0.458313 13.0003 0.458313C14.9066 0.458313 16.5259 1.677 17.1261 3.37506C17.2872 3.83068 17.0484 4.33059 16.5927 4.49163C16.1371 4.65267 15.6372 4.41386 15.4762 3.95824C15.1154 2.93751 14.1419 2.20831 13.0003 2.20831Z" fill="#1C274D"/>
</svg>
