<svg width="22" height="24" viewBox="0 0 22 24" fill="none" xmlns="http://www.w3.org/2000/svg">
<path d="M14.3144 10.3746C14.6133 10.0398 14.5842 9.5262 14.2495 9.22734C13.9147 8.92848 13.4011 8.95755 13.1023 9.29228L9.83929 12.9468L8.89774 11.8923C8.59888 11.5576 8.08526 11.5285 7.75053 11.8273C7.4158 12.1262 7.38673 12.6398 7.68559 12.9746L9.23321 14.7079C9.38736 14.8805 9.60783 14.9792 9.83929 14.9792C10.0707 14.9792 10.2912 14.8805 10.4454 14.7079L14.3144 10.3746Z" fill="#3263DF"/>
<path fill-rule="evenodd" clip-rule="evenodd" d="M11 0.354248C9.98435 0.354248 9.0146 0.686379 7.45034 1.22212L6.66228 1.4919C5.05751 2.04121 3.81902 2.46515 2.93245 2.82532C2.48585 3.00675 2.1019 3.18247 1.79273 3.36202C1.49521 3.53481 1.19672 3.75033 0.993935 4.03925C0.793488 4.32484 0.689845 4.67593 0.624715 5.0139C0.557005 5.36527 0.516176 5.78677 0.489824 6.27072C0.4375 7.23164 0.4375 8.54805 0.4375 10.2555V11.9907C0.4375 18.6002 5.42953 21.7691 8.3982 23.0659L8.42755 23.0787C8.79566 23.2395 9.14167 23.3907 9.53924 23.4925C9.95899 23.6 10.405 23.6459 11 23.6459C11.595 23.6459 12.041 23.6 12.4608 23.4925C12.8583 23.3907 13.2043 23.2395 13.5724 23.0787L13.6018 23.0659C16.5705 21.7691 21.5625 18.6002 21.5625 11.9907V10.2557C21.5625 8.54816 21.5625 7.23168 21.5102 6.27072C21.4838 5.78677 21.443 5.36527 21.3753 5.0139C21.3102 4.67593 21.2065 4.32484 21.0061 4.03925C20.8033 3.75033 20.5048 3.53481 20.2073 3.36202C19.8981 3.18247 19.5142 3.00675 19.0676 2.82532C18.181 2.46515 16.9425 2.04121 15.3377 1.49189L14.5497 1.22213C12.9854 0.68638 12.0157 0.354248 11 0.354248ZM7.83733 2.80724C9.58641 2.20852 10.2874 1.97925 11 1.97925C11.7126 1.97925 12.4136 2.20852 14.1627 2.80724L14.7832 3.01965C16.4219 3.58057 17.6169 3.98997 18.4559 4.33083C18.8747 4.50096 19.1782 4.64354 19.3912 4.76724C19.4963 4.82831 19.5688 4.8787 19.6172 4.91804C19.6582 4.95136 19.6738 4.97024 19.6761 4.97302C19.6782 4.9764 19.6916 4.9989 19.7106 5.05216C19.7323 5.11295 19.7563 5.20009 19.7796 5.32139C19.827 5.56692 19.8628 5.90418 19.8876 6.35908C19.9372 7.27037 19.9375 8.54244 19.9375 10.2848V11.9907C19.9375 17.5971 15.7451 20.3563 12.9513 21.5767C12.5489 21.7525 12.3165 21.852 12.0578 21.9183C11.8107 21.9815 11.5092 22.0209 11 22.0209C10.4908 22.0209 10.1893 21.9815 9.94223 21.9183C9.68352 21.852 9.45112 21.7525 9.04869 21.5767C6.25489 20.3563 2.0625 17.5971 2.0625 11.9907V10.2848C2.0625 8.54244 2.0628 7.27037 2.11242 6.35908C2.13719 5.90418 2.17304 5.56692 2.22036 5.32139C2.24373 5.20009 2.26773 5.11295 2.28938 5.05216C2.30834 4.99894 2.3218 4.97643 2.3239 4.97303C2.32614 4.97027 2.34178 4.95139 2.38281 4.91804C2.4312 4.8787 2.50366 4.82831 2.60881 4.76724C2.82181 4.64354 3.12525 4.50096 3.54406 4.33083C4.38311 3.98997 5.57814 3.58056 7.21679 3.01965L7.83733 2.80724Z" fill="#3263DF"/>
</svg>
