<svg width="16" height="17" viewBox="0 0 16 17" fill="none" xmlns="http://www.w3.org/2000/svg">
<path d="M5.33696 8.04099C5.33696 6.56697 6.53121 5.37174 8.0048 5.37174C9.47839 5.37174 10.6733 6.56697 10.6733 8.04099C10.6733 9.515 9.47839 10.7102 8.0048 10.7102C6.53121 10.7102 5.33696 9.515 5.33696 8.04099ZM3.89443 8.04099C3.89443 10.3118 5.73464 12.1525 8.0048 12.1525C10.275 12.1525 12.1152 10.3118 12.1152 8.04099C12.1152 5.77017 10.275 3.92943 8.0048 3.92943C5.73464 3.92943 3.89443 5.77017 3.89443 8.04099ZM11.3173 3.76641C11.3172 3.95644 11.3735 4.14224 11.479 4.30029C11.5845 4.45835 11.7344 4.58156 11.9099 4.65436C12.0854 4.72715 12.2786 4.74626 12.4649 4.70926C12.6513 4.67226 12.8225 4.58081 12.9568 4.44649C13.0912 4.31216 13.1828 4.14099 13.2199 3.95462C13.2571 3.76825 13.2381 3.57504 13.1655 3.39944C13.0929 3.22384 12.9698 3.07373 12.8119 2.96808C12.654 2.86244 12.4683 2.80601 12.2783 2.80594H12.2779C12.0232 2.80606 11.779 2.90727 11.5989 3.08736C11.4188 3.26745 11.3175 3.51167 11.3173 3.76641ZM4.77086 14.5586C3.99042 14.523 3.56623 14.393 3.28434 14.2831C2.91061 14.1376 2.64395 13.9643 2.36359 13.6842C2.08323 13.4041 1.90969 13.1377 1.76483 12.7638C1.65494 12.482 1.52495 12.0575 1.48947 11.2769C1.45066 10.4329 1.44291 10.1793 1.44291 8.04105C1.44291 5.90277 1.4513 5.64993 1.48947 4.80522C1.52501 4.02455 1.65597 3.60095 1.76483 3.31826C1.91033 2.94443 2.08362 2.67769 2.36359 2.39725C2.64357 2.11681 2.90997 1.94322 3.28434 1.79832C3.56611 1.6884 3.99042 1.55836 4.77086 1.52288C5.61463 1.48406 5.86809 1.47631 8.0048 1.47631C10.1415 1.47631 10.3952 1.4847 11.2397 1.52288C12.0201 1.55843 12.4436 1.68942 12.7262 1.79832C13.1 1.94322 13.3666 2.1172 13.647 2.39725C13.9273 2.67731 14.1002 2.94443 14.2457 3.31826C14.3556 3.60011 14.4856 4.02455 14.5211 4.80522C14.5599 5.64993 14.5676 5.90277 14.5676 8.04105C14.5676 10.1793 14.5599 10.4322 14.5211 11.2769C14.4856 12.0575 14.3549 12.4819 14.2457 12.7638C14.1002 13.1377 13.9269 13.4044 13.647 13.6842C13.367 13.964 13.1 14.1376 12.7262 14.2831C12.4445 14.3931 12.0201 14.5231 11.2397 14.5586C10.3959 14.5974 10.1425 14.6052 8.0048 14.6052C5.86713 14.6052 5.61437 14.5974 4.77086 14.5586ZM4.70458 0.0823656C3.85242 0.121184 3.27012 0.256344 2.76159 0.45428C2.23494 0.658685 1.7891 0.932913 1.34359 1.37785C0.898075 1.82279 0.624631 2.26946 0.420284 2.79626C0.222405 3.30526 0.0872843 3.88741 0.0484771 4.73981C0.00902942 5.59356 0 5.86651 0 8.04099C0 10.2155 0.00902942 10.4884 0.0484771 11.3422C0.0872843 12.1946 0.222405 12.7767 0.420284 13.2857C0.624631 13.8122 0.898139 14.2594 1.34359 14.7041C1.78904 15.1489 2.23494 15.4227 2.76159 15.6277C3.27108 15.8256 3.85242 15.9608 4.70458 15.9996C5.55853 16.0384 5.83095 16.0481 8.0048 16.0481C10.1786 16.0481 10.4515 16.0391 11.305 15.9996C12.1572 15.9608 12.7392 15.8256 13.248 15.6277C13.7743 15.4227 14.2205 15.1491 14.666 14.7041C15.1115 14.2592 15.3844 13.8122 15.5893 13.2857C15.7872 12.7767 15.923 12.1946 15.9611 11.3422C15.9999 10.4878 16.009 10.2155 16.009 8.04099C16.009 5.86651 15.9999 5.59356 15.9611 4.73981C15.9223 3.88735 15.7872 3.30494 15.5893 2.79626C15.3844 2.26978 15.1108 1.8235 14.666 1.37785C14.2212 0.932208 13.7743 0.658685 13.2486 0.45428C12.7392 0.256344 12.1572 0.120543 11.3057 0.0823656C10.4522 0.0435471 10.1793 0.0338745 8.00544 0.0338745C5.83159 0.0338745 5.55853 0.0429065 4.70458 0.0823656Z" fill="#0D6EFD"/>
</svg>
