<svg width="18" height="18" viewBox="0 0 18 18" fill="none" xmlns="http://www.w3.org/2000/svg">
<path d="M6.17052 9.04369C6.17052 7.47755 7.43941 6.20761 9.0051 6.20761C10.5708 6.20761 11.8404 7.47755 11.8404 9.04369C11.8404 10.6098 10.5708 11.8798 9.0051 11.8798C7.43941 11.8798 6.17052 10.6098 6.17052 9.04369ZM4.63783 9.04369C4.63783 11.4564 6.59305 13.4122 9.0051 13.4122C11.4171 13.4122 13.3724 11.4564 13.3724 9.04369C13.3724 6.63095 11.4171 4.67516 9.0051 4.67516C6.59305 4.67516 4.63783 6.63095 4.63783 9.04369ZM12.5246 4.50195C12.5246 4.70386 12.5843 4.90127 12.6964 5.0692C12.8085 5.23713 12.9679 5.36805 13.1543 5.44539C13.3408 5.52274 13.546 5.54304 13.744 5.50373C13.942 5.46441 14.1239 5.36725 14.2667 5.22453C14.4094 5.08181 14.5067 4.89995 14.5462 4.70192C14.5856 4.5039 14.5655 4.29863 14.4883 4.11205C14.4112 3.92547 14.2804 3.76598 14.1126 3.65373C13.9448 3.54148 13.7475 3.48153 13.5457 3.48145H13.5453C13.2747 3.48157 13.0152 3.58912 12.8239 3.78046C12.6325 3.9718 12.5249 4.2313 12.5246 4.50195ZM5.56904 15.9686C4.73983 15.9309 4.28912 15.7927 3.98961 15.676C3.59252 15.5213 3.3092 15.3372 3.01132 15.0396C2.71344 14.7421 2.52905 14.4589 2.37514 14.0617C2.25838 13.7623 2.12026 13.3113 2.08256 12.4818C2.04133 11.5851 2.0331 11.3157 2.0331 9.04376C2.0331 6.77183 2.04201 6.5032 2.08256 5.60568C2.12032 4.77623 2.25947 4.32615 2.37514 4.0258C2.52973 3.6286 2.71384 3.34519 3.01132 3.04722C3.30879 2.74925 3.59184 2.56481 3.98961 2.41086C4.28899 2.29407 4.73983 2.1559 5.56904 2.1182C6.46555 2.07695 6.73485 2.06872 9.0051 2.06872C11.2754 2.06872 11.5449 2.07763 12.4422 2.1182C13.2714 2.15597 13.7214 2.29516 14.0216 2.41086C14.4187 2.56481 14.702 2.74966 14.9999 3.04722C15.2978 3.34478 15.4815 3.6286 15.6361 4.0258C15.7528 4.32526 15.891 4.77623 15.9287 5.60568C15.9699 6.5032 15.9781 6.77183 15.9781 9.04376C15.9781 11.3157 15.9699 11.5843 15.9287 12.4818C15.8909 13.3113 15.7521 13.7621 15.6361 14.0617C15.4815 14.4589 15.2974 14.7423 14.9999 15.0396C14.7024 15.3369 14.4187 15.5213 14.0216 15.676C13.7222 15.7928 13.2714 15.9309 12.4422 15.9686C11.5457 16.0099 11.2764 16.0181 9.0051 16.0181C6.73383 16.0181 6.46527 16.0099 5.56904 15.9686ZM5.49862 0.587655C4.5932 0.628899 3.9745 0.772507 3.43419 0.982814C2.87462 1.19999 2.40092 1.49136 1.92756 1.96411C1.4542 2.43686 1.16367 2.91144 0.946552 3.47117C0.736306 4.01198 0.59274 4.63051 0.551507 5.53619C0.509594 6.4433 0.5 6.73331 0.5 9.04369C0.5 11.3541 0.509594 11.6441 0.551507 12.5512C0.59274 13.4569 0.736306 14.0754 0.946552 14.6162C1.16367 15.1756 1.45427 15.6507 1.92756 16.1233C2.40086 16.5958 2.87462 16.8868 3.43419 17.1046C3.97552 17.3149 4.5932 17.4585 5.49862 17.4997C6.40594 17.541 6.69539 17.5512 9.0051 17.5512C11.3148 17.5512 11.6047 17.5416 12.5116 17.4997C13.4171 17.4585 14.0354 17.3149 14.576 17.1046C15.1352 16.8868 15.6093 16.596 16.0826 16.1233C16.556 15.6505 16.8459 15.1756 17.0637 14.6162C17.2739 14.0754 17.4181 13.4569 17.4587 12.5512C17.4999 11.6434 17.5095 11.3541 17.5095 9.04369C17.5095 6.73331 17.4999 6.4433 17.4587 5.53619C17.4175 4.63045 17.2739 4.01164 17.0637 3.47117C16.8459 2.91178 16.5553 2.43761 16.0826 1.96411C15.61 1.49061 15.1352 1.19999 14.5767 0.982814C14.0354 0.772507 13.417 0.628219 12.5123 0.587655C11.6054 0.54641 11.3155 0.536133 9.00578 0.536133C6.69607 0.536133 6.40594 0.545729 5.49862 0.587655Z" fill="white"/>
</svg>
