<svg width="16" height="14" viewBox="0 0 16 14" fill="none" xmlns="http://www.w3.org/2000/svg">
<path d="M4.08895 13.8896V4.70522H1.03891V13.8896H4.08926H4.08895ZM2.56457 3.45147C3.62795 3.45147 4.28998 2.74622 4.28998 1.86485C4.27008 0.963401 3.62795 0.277832 2.58479 0.277832C1.54091 0.277832 0.859131 0.963401 0.859131 1.86477C0.859131 2.74614 1.52092 3.45139 2.54458 3.45139H2.56433L2.56457 3.45147ZM5.77718 13.8896H8.82698V8.76118C8.82698 8.48705 8.84688 8.2122 8.92746 8.0164C9.14784 7.46774 9.64968 6.89979 10.4924 6.89979C11.5958 6.89979 12.0374 7.74195 12.0374 8.97674V13.8896H15.0872V8.62356C15.0872 5.80263 13.5827 4.4899 11.5761 4.4899C9.93089 4.4899 9.20835 5.41024 8.80692 6.03707H8.82722V4.70554H5.77734C5.81715 5.56715 5.7771 13.8899 5.7771 13.8899L5.77718 13.8896Z" fill="white"/>
</svg>
