<svg width="14" height="14" viewBox="0 0 14 14" fill="none" xmlns="http://www.w3.org/2000/svg">
<path d="M3.31912 13.4843V4.84017H0.448501V13.4843H3.31942H3.31912ZM1.88441 3.66017C2.88525 3.66017 3.50833 2.9964 3.50833 2.16688C3.4896 1.31846 2.88525 0.673218 1.90344 0.673218C0.920968 0.673218 0.279297 1.31846 0.279297 2.16681C0.279297 2.99633 0.902159 3.66009 1.8656 3.66009H1.88419L1.88441 3.66017ZM4.90805 13.4843H7.77845V8.65755C7.77845 8.39954 7.79718 8.14086 7.87302 7.95658C8.08044 7.44019 8.55276 6.90565 9.34595 6.90565C10.3844 6.90565 10.8001 7.69827 10.8001 8.86043V13.4843H13.6704V8.52802C13.6704 5.87303 12.2544 4.63752 10.3658 4.63752C8.81743 4.63752 8.13739 5.50372 7.75956 6.09368H7.77867V4.84047H4.9082C4.94567 5.65139 4.90798 13.4846 4.90798 13.4846L4.90805 13.4843Z" fill="#3263DF"/>
</svg>
