<svg width="28" height="28" viewBox="0 0 28 28" fill="none" xmlns="http://www.w3.org/2000/svg">
<path d="M20.3166 12.1499C21 11.4665 21 10.3666 21 8.16667C21 5.96678 21 4.86683 20.3166 4.18342M20.3166 12.1499C19.6332 12.8333 18.5332 12.8333 16.3333 12.8333H11.6667C9.46678 12.8333 8.36684 12.8333 7.68342 12.1499M20.3166 12.1499C20.3166 12.1499 20.3166 12.1499 20.3166 12.1499ZM20.3166 4.18342C19.6332 3.5 18.5332 3.5 16.3333 3.5L11.6667 3.5C9.46678 3.5 8.36683 3.5 7.68342 4.18342M20.3166 4.18342C20.3166 4.18342 20.3166 4.18342 20.3166 4.18342ZM7.68342 4.18342C7 4.86684 7 5.96678 7 8.16667C7 10.3666 7 11.4665 7.68342 12.1499M7.68342 4.18342C7.68342 4.18342 7.68342 4.18342 7.68342 4.18342ZM7.68342 12.1499C7.68342 12.1499 7.68342 12.1499 7.68342 12.1499Z" stroke="#3263DF" stroke-width="1.5"/>
<path d="M15.1666 8.16667C15.1666 8.811 14.6443 9.33333 13.9999 9.33333C13.3556 9.33333 12.8333 8.811 12.8333 8.16667C12.8333 7.52233 13.3556 7 13.9999 7C14.6443 7 15.1666 7.52233 15.1666 8.16667Z" stroke="#3263DF" stroke-width="1.5"/>
<path d="M21 7C19.067 7 17.5 5.433 17.5 3.5" stroke="#3263DF" stroke-width="1.5" stroke-linecap="round"/>
<path d="M21 9.33325C19.067 9.33325 17.5 10.9003 17.5 12.8333" stroke="#3263DF" stroke-width="1.5" stroke-linecap="round"/>
<path d="M7 7C8.933 7 10.5 5.433 10.5 3.5" stroke="#3263DF" stroke-width="1.5" stroke-linecap="round"/>
<path d="M7 9.33325C8.933 9.33325 10.5 10.9003 10.5 12.8333" stroke="#3263DF" stroke-width="1.5" stroke-linecap="round"/>
<path d="M4.66675 24.9531H7.30334C8.48268 24.9531 9.6747 25.076 10.8225 25.3124C12.8527 25.7307 14.9904 25.7814 17.0415 25.4494C18.0528 25.2857 19.0471 25.0354 19.9471 24.601C20.7596 24.2088 21.7548 23.656 22.4233 23.0369C23.0909 22.4186 23.7861 21.4068 24.2795 20.6159C24.7026 19.9376 24.498 19.1056 23.8287 18.6002C23.0853 18.0389 21.9821 18.039 21.2388 18.6005L19.1304 20.1932C18.3133 20.8104 17.4207 21.3786 16.3574 21.5482C16.2296 21.5686 16.0956 21.5872 15.9558 21.6034M15.9558 21.6034C15.9138 21.6083 15.8712 21.6129 15.828 21.6174M15.9558 21.6034C16.1259 21.5669 16.2948 21.4621 16.4533 21.3237C17.2037 20.6688 17.2512 19.565 16.6001 18.8336C16.449 18.664 16.2722 18.5224 16.0757 18.4052C12.8121 16.4587 7.7344 17.9412 4.66675 20.1167M15.9558 21.6034C15.9133 21.6125 15.8706 21.6174 15.828 21.6174M15.828 21.6174C15.2174 21.68 14.5031 21.6962 13.7105 21.6214" stroke="#3263DF" stroke-width="1.5" stroke-linecap="round"/>
</svg>
