<svg width="24" height="25" viewBox="0 0 24 25" fill="none" xmlns="http://www.w3.org/2000/svg">
<path d="M19.4164 0.883139C19.665 0.468757 20.2025 0.334387 20.6168 0.583017L20.1667 1.33332C20.6168 0.583017 20.6165 0.582779 20.6168 0.583017L20.6185 0.58399L20.6203 0.5851L20.6246 0.587729L20.6358 0.594634C20.6444 0.599971 20.6552 0.606784 20.668 0.615088C20.6937 0.631691 20.7277 0.654294 20.7687 0.683032C20.8507 0.740455 20.9616 0.822707 21.0914 0.930921C21.3505 1.14686 21.6894 1.46944 22.0269 1.90816C22.7069 2.79218 23.375 4.14189 23.375 5.99999C23.375 7.85809 22.7069 9.2078 22.0269 10.0918C21.6894 10.5305 21.3505 10.8531 21.0914 11.0691C20.9616 11.1773 20.8507 11.2595 20.7687 11.3169C20.7277 11.3457 20.6937 11.3683 20.668 11.3849C20.6552 11.3932 20.6444 11.4 20.6358 11.4053L20.6246 11.4123L20.6203 11.4149L20.6185 11.416C20.6181 11.4162 20.6168 11.417 20.1667 10.6667L20.6168 11.417C20.2025 11.6656 19.665 11.5312 19.4164 11.1168C19.1688 10.7042 19.301 10.1695 19.7113 9.91951L19.7177 9.91538C19.7262 9.90988 19.7424 9.89922 19.7651 9.88329C19.8107 9.85139 19.8822 9.79875 19.9711 9.72467C20.1495 9.57602 20.3939 9.34444 20.6398 9.02483C21.1264 8.39218 21.625 7.40856 21.625 5.99999C21.625 4.59142 21.1264 3.6078 20.6398 2.97515C20.3939 2.65554 20.1495 2.42396 19.9711 2.27531C19.8822 2.20123 19.8107 2.14859 19.7651 2.11669C19.7424 2.10076 19.7262 2.0901 19.7177 2.0846L19.7113 2.08048C19.301 1.83048 19.1688 1.29578 19.4164 0.883139Z" fill="#1C274C"/>
<path fill-rule="evenodd" clip-rule="evenodd" d="M9.66667 0.458323C6.60609 0.458323 4.125 2.93941 4.125 5.99999C4.125 9.06057 6.60609 11.5417 9.66667 11.5417C12.7272 11.5417 15.2083 9.06057 15.2083 5.99999C15.2083 2.93941 12.7272 0.458323 9.66667 0.458323ZM5.875 5.99999C5.875 3.90591 7.57259 2.20832 9.66667 2.20832C11.7607 2.20832 13.4583 3.90591 13.4583 5.99999C13.4583 8.09407 11.7607 9.79166 9.66667 9.79166C7.57259 9.79166 5.875 8.09407 5.875 5.99999Z" fill="#1C274C"/>
<path fill-rule="evenodd" clip-rule="evenodd" d="M9.66667 13.2917C7.28744 13.2917 5.09044 13.8409 3.45784 14.7738C1.85 15.6925 0.625 17.0951 0.625 18.8333C0.625 20.5715 1.85 21.9741 3.45784 22.8929C5.09044 23.8258 7.28744 24.375 9.66667 24.375C12.0459 24.375 14.2429 23.8258 15.8755 22.8929C17.4833 21.9741 18.7083 20.5715 18.7083 18.8333C18.7083 17.0951 17.4833 15.6925 15.8755 14.7738C14.2429 13.8409 12.0459 13.2917 9.66667 13.2917ZM2.375 18.8333C2.375 17.9942 2.97817 17.0634 4.32608 16.2932C5.64924 15.5371 7.53556 15.0417 9.66667 15.0417C11.7978 15.0417 13.6841 15.5371 15.0072 16.2932C16.3552 17.0634 16.9583 17.9942 16.9583 18.8333C16.9583 19.6725 16.3552 20.6032 15.0072 21.3734C13.6841 22.1295 11.7978 22.625 9.66667 22.625C7.53556 22.625 5.64924 22.1295 4.32608 21.3734C2.97817 20.6032 2.375 19.6725 2.375 18.8333Z" fill="#1C274C"/>
<path d="M18.2835 2.91635C17.8691 2.66772 17.3317 2.80209 17.083 3.21647L17.3726 4.41055L17.3817 4.41675C17.3954 4.42632 17.4213 4.44524 17.4555 4.47375C17.5245 4.53125 17.6231 4.62429 17.7231 4.75432C17.9181 5.00779 18.125 5.40809 18.125 5.99999C18.125 6.59189 17.9181 6.99218 17.7231 7.24566C17.6231 7.37569 17.5245 7.46873 17.4555 7.52623C17.4213 7.55474 17.3954 7.57366 17.3817 7.58323L17.3726 7.58943C16.9665 7.84079 16.8365 8.37265 17.083 8.78351C17.3317 9.19789 17.8691 9.33226 18.2835 9.08363L17.8333 8.33332C18.2835 9.08363 18.2831 9.08386 18.2835 9.08363L18.2851 9.08269L18.2868 9.08167L18.2904 9.07943L18.2991 9.07407L18.3216 9.05982C18.3387 9.04874 18.3601 9.03446 18.3852 9.01688C18.4354 8.98179 18.5006 8.93326 18.5758 8.87062C18.7255 8.74583 18.9186 8.56179 19.1102 8.31265C19.4986 7.80779 19.875 7.04142 19.875 5.99999C19.875 4.95856 19.4986 4.19218 19.1102 3.68733C18.9186 3.43819 18.7255 3.25415 18.5758 3.12936C18.5006 3.06672 18.4354 3.01819 18.3852 2.9831C18.3601 2.96552 18.3387 2.95124 18.3216 2.94016L18.2991 2.92591L18.2904 2.92055L18.2868 2.9183L18.2851 2.91729C18.2847 2.91706 18.2835 2.91635 17.8333 3.66666L18.2835 2.91635Z" fill="#1C274C"/>
</svg>
