<svg width="20" height="26" viewBox="0 0 20 26" fill="none" xmlns="http://www.w3.org/2000/svg">
<path fill-rule="evenodd" clip-rule="evenodd" d="M10.0007 2.20834C5.97358 2.20834 2.70898 5.47293 2.70898 9.50001C2.70898 13.5271 5.97358 16.7917 10.0007 16.7917C14.0277 16.7917 17.2923 13.5271 17.2923 9.50001C17.2923 5.47293 14.0277 2.20834 10.0007 2.20834ZM0.958984 9.50001C0.958984 4.50644 5.00708 0.458344 10.0007 0.458344C14.9942 0.458344 19.0423 4.50644 19.0423 9.50001C19.0423 12.0963 17.948 14.437 16.1955 16.0861C16.2259 16.1429 16.2505 16.2039 16.2682 16.2687L17.026 19.0327C17.38 20.3239 17.6652 21.3638 17.7948 22.1708C17.922 22.9618 17.948 23.7766 17.5053 24.4389C17.2533 24.816 16.9111 25.1248 16.5067 25.3307C15.7719 25.7048 14.9706 25.5204 14.2527 25.2494C13.5204 24.973 12.6009 24.4938 11.4715 23.9053L11.4171 23.8769C10.5722 23.4367 10.3515 23.3379 10.1396 23.3153C10.0472 23.3054 9.95412 23.3054 9.8617 23.3153C9.64976 23.3379 9.42915 23.4367 8.58421 23.8769L8.52981 23.9053C7.40041 24.4938 6.48086 24.973 5.74861 25.2494C5.03073 25.5204 4.22938 25.7048 3.49464 25.3307C3.09018 25.1248 2.74797 24.816 2.49596 24.4389C2.05332 23.7766 2.07935 22.9618 2.20646 22.1708C2.33615 21.3638 2.62128 20.3239 2.97529 19.0327L3.73309 16.2687C3.75084 16.2039 3.77542 16.1429 3.80583 16.0861C2.05329 14.437 0.958984 12.0963 0.958984 9.50001ZM5.2875 17.2176L4.67779 19.4415C4.30557 20.7991 4.04705 21.7469 3.93429 22.4485C3.81714 23.1775 3.90447 23.397 3.95095 23.4666C4.04177 23.6025 4.15946 23.7055 4.28868 23.7712C4.31533 23.7848 4.48249 23.8568 5.13056 23.6122C5.75254 23.3774 6.57864 22.9487 7.77554 22.325C7.81624 22.3038 7.85644 22.2828 7.89617 22.262C8.55894 21.9158 9.09195 21.6374 9.67627 21.5751C9.89196 21.5522 10.1093 21.5522 10.325 21.5751C10.9094 21.6374 11.4424 21.9158 12.1051 22.262C12.1449 22.2828 12.1851 22.3038 12.2258 22.325C13.4227 22.9487 14.2488 23.3774 14.8707 23.6122C15.5188 23.8568 15.686 23.7848 15.7126 23.7712C15.8418 23.7055 15.9595 23.6025 16.0504 23.4666C16.0968 23.397 16.1842 23.1775 16.067 22.4485C15.9543 21.7469 15.6957 20.7991 15.3235 19.4415L14.7138 17.2176C13.3414 18.0575 11.7276 18.5417 10.0007 18.5417C8.27375 18.5417 6.65993 18.0575 5.2875 17.2176ZM10.0007 7.20691C9.93283 7.32433 9.85741 7.45955 9.76853 7.61898L9.65384 7.82473C9.64574 7.83926 9.63707 7.85512 9.62778 7.87211C9.53616 8.03966 9.38444 8.31712 9.13145 8.50918C8.87318 8.70524 8.5625 8.7727 8.38084 8.81214C8.36264 8.81609 8.34574 8.81977 8.33031 8.82326L8.10758 8.87365C7.90322 8.91989 7.73675 8.95762 7.5944 8.99339C7.68699 9.10736 7.80725 9.24888 7.96369 9.4318L8.11552 9.60935C8.1263 9.62195 8.13801 9.63545 8.15049 9.64982C8.27641 9.79486 8.47972 10.029 8.57374 10.3314C8.66664 10.6301 8.6346 10.9378 8.61438 11.132C8.61236 11.1513 8.61046 11.1696 8.60882 11.1865L8.58586 11.4234C8.56458 11.6431 8.54803 11.8184 8.53701 11.9609C8.65859 11.9074 8.79688 11.8438 8.96118 11.7681L9.16972 11.6721C9.18408 11.6655 9.19981 11.6581 9.21682 11.6501C9.38424 11.5711 9.67554 11.4337 10.0007 11.4337C10.3258 11.4337 10.6171 11.5711 10.7845 11.6501C10.8015 11.6581 10.8172 11.6655 10.8316 11.6721L11.0401 11.7681C11.2044 11.8438 11.3427 11.9074 11.4643 11.9609C11.4533 11.8184 11.4367 11.6431 11.4154 11.4234L11.3925 11.1865C11.3908 11.1696 11.3889 11.1513 11.3869 11.132C11.3667 10.9379 11.3347 10.6302 11.4276 10.3314C11.5216 10.029 11.7249 9.79486 11.8508 9.64982C11.8633 9.63545 11.875 9.62195 11.8858 9.60935L12.0376 9.4318C12.1941 9.24887 12.3143 9.10736 12.4069 8.99339C12.2646 8.95762 12.0981 8.91989 11.8937 8.87365L11.671 8.82326C11.6556 8.81977 11.6387 8.81609 11.6205 8.81214C11.4388 8.7727 11.1281 8.70524 10.8699 8.50918C10.6169 8.31712 10.4651 8.03966 10.3735 7.87211C10.3642 7.85512 10.3556 7.83926 10.3475 7.82473L10.2328 7.61898C10.1439 7.45955 10.0685 7.32433 10.0007 7.20691ZM8.84973 5.76625C9.05059 5.50395 9.41534 5.12501 10.0007 5.12501C10.586 5.12501 10.9507 5.50395 11.1516 5.76625C11.3433 6.01659 11.5364 6.36312 11.7343 6.7184C11.7433 6.73456 11.7523 6.75072 11.7613 6.7669L11.876 6.97265C11.9026 7.02037 11.9236 7.05791 11.9419 7.09002C11.9738 7.09751 12.0108 7.10591 12.0572 7.1164L12.2799 7.16679C12.2981 7.17092 12.3164 7.17504 12.3346 7.17916C12.7171 7.26558 13.0972 7.35147 13.3889 7.46645C13.7111 7.59341 14.1478 7.84067 14.3161 8.38189C14.4814 8.91357 14.2728 9.36393 14.0906 9.65339C13.9219 9.92127 13.6656 10.2208 13.4032 10.5275C13.3914 10.5414 13.3795 10.5553 13.3676 10.5692L13.2158 10.7467C13.1755 10.7938 13.1452 10.8293 13.1197 10.86C13.1232 10.9023 13.1279 10.9517 13.1343 11.0178L13.1573 11.2547C13.159 11.2727 13.1608 11.2908 13.1625 11.3088C13.2024 11.7194 13.2409 12.1162 13.2268 12.4336C13.212 12.7664 13.1321 13.2701 12.6804 13.613C12.2144 13.9668 11.6998 13.8897 11.3735 13.7962C11.0728 13.71 10.7175 13.5463 10.3596 13.3814C10.3425 13.3735 10.3254 13.3656 10.3082 13.3577L10.0997 13.2617C10.0607 13.2437 10.0286 13.229 10.0007 13.2163C9.97271 13.229 9.94065 13.2437 9.90162 13.2617L9.69309 13.3577C9.67595 13.3656 9.6588 13.3735 9.64166 13.3814C9.28382 13.5463 8.92853 13.71 8.62783 13.7962C8.30149 13.8897 7.78687 13.9668 7.32089 13.613C6.86919 13.2701 6.78932 12.7664 6.7745 12.4336C6.76036 12.1162 6.79889 11.7194 6.83877 11.3088C6.84052 11.2908 6.84227 11.2727 6.84402 11.2547L6.86698 11.0178C6.87337 10.9517 6.87814 10.9023 6.88162 10.86C6.85608 10.8293 6.82576 10.7938 6.78552 10.7467L6.63369 10.5692C6.62181 10.5553 6.60994 10.5414 6.59808 10.5275C6.33568 10.2208 6.07938 9.92127 5.91074 9.65339C5.72852 9.36393 5.51988 8.91357 5.68522 8.38189C5.85352 7.84067 6.29021 7.59341 6.61238 7.46645C6.90414 7.35147 7.28423 7.26558 7.66668 7.17916C7.68491 7.17504 7.70316 7.17092 7.72139 7.16679L7.94412 7.1164C7.99046 7.10591 8.02755 7.09751 8.05943 7.09002C8.07775 7.05791 8.09869 7.02037 8.12529 6.97265L8.23998 6.7669C8.249 6.75073 8.25801 6.73456 8.26701 6.71841C8.46495 6.36313 8.65802 6.01659 8.84973 5.76625Z" fill="#1C274C"/>
</svg>
