<svg width="62" height="62" viewBox="0 0 62 62" fill="none" xmlns="http://www.w3.org/2000/svg">
<circle cx="31" cy="31" r="31" fill="white"/>
<path d="M35.8566 24.9765C39.6189 27.5341 41.5 28.8129 41.5 31C41.5 33.1872 39.6189 34.4659 35.8566 37.0235C34.8181 37.7295 33.788 38.3943 32.8414 38.9482C32.011 39.4341 31.0705 39.9368 30.0968 40.4302C26.3434 42.3323 24.4667 43.2833 22.7835 42.2304C21.1003 41.1774 20.9473 38.9731 20.6413 34.5646C20.5548 33.3179 20.5 32.0957 20.5 31C20.5 29.9043 20.5548 28.6821 20.6413 27.4354C20.9473 23.0269 21.1003 20.8226 22.7835 19.7697C24.4667 18.7167 26.3434 19.6678 30.0968 21.5698C31.0705 22.0632 32.011 22.5659 32.8414 23.0519C33.788 23.6058 34.8181 24.2705 35.8566 24.9765Z" fill="#0B5BA6"/>
</svg>
