<svg width="28" height="28" viewBox="0 0 28 28" fill="none" xmlns="http://www.w3.org/2000/svg">
<path fill-rule="evenodd" clip-rule="evenodd" d="M14.0007 3.20831C8.04058 3.20831 3.20898 8.03991 3.20898 14C3.20898 19.9601 8.04058 24.7916 14.0007 24.7916C19.9607 24.7916 24.7923 19.9601 24.7923 14C24.7923 8.03991 19.9607 3.20831 14.0007 3.20831ZM1.45898 14C1.45898 7.07341 7.07408 1.45831 14.0007 1.45831C20.9272 1.45831 26.5423 7.07341 26.5423 14C26.5423 20.9266 20.9272 26.5416 14.0007 26.5416C7.07408 26.5416 1.45898 20.9266 1.45898 14ZM14.0007 8.45831C14.4839 8.45831 14.8757 8.85006 14.8757 9.33331V13.6375L17.536 16.2979C17.8777 16.6396 17.8777 17.1937 17.536 17.5354C17.1943 17.8771 16.6403 17.8771 16.2986 17.5354L13.3819 14.6187C13.2178 14.4546 13.1257 14.232 13.1257 14V9.33331C13.1257 8.85006 13.5174 8.45831 14.0007 8.45831Z" fill="#1C274C"/>
</svg>
