<svg width="24" height="26" viewBox="0 0 24 26" fill="none" xmlns="http://www.w3.org/2000/svg">
<path fill-rule="evenodd" clip-rule="evenodd" d="M6.47304 2.80387C6.61256 1.48552 7.72799 0.458344 9.08333 0.458344H14.9167C16.272 0.458344 17.3874 1.48552 17.527 2.80387C18.4172 2.822 19.187 2.86805 19.8443 2.98878C20.7286 3.15122 21.4812 3.46067 22.0936 4.07309C22.7958 4.77532 23.0979 5.65951 23.2391 6.70963C23.375 7.7211 23.375 9.00714 23.375 10.6027V17.7307C23.375 19.3262 23.375 20.6123 23.2391 21.6237C23.0979 22.6738 22.7958 23.558 22.0936 24.2603C21.3914 24.9625 20.5072 25.2645 19.457 25.4057C18.4456 25.5417 17.1595 25.5417 15.564 25.5417H8.43599C6.84046 25.5417 5.55442 25.5417 4.54296 25.4057C3.49283 25.2645 2.60865 24.9625 1.90641 24.2603C1.20417 23.558 0.90213 22.6738 0.760945 21.6237C0.624957 20.6123 0.624977 19.3262 0.625001 17.7307V10.6027C0.624977 9.00714 0.624957 7.7211 0.760945 6.70963C0.90213 5.65951 1.20417 4.77532 1.90641 4.07308C2.51883 3.46067 3.27141 3.15122 4.15575 2.98878C4.81301 2.86805 5.58278 2.822 6.47304 2.80387ZM6.47579 4.55435C5.63791 4.57225 4.99225 4.6144 4.47191 4.70999C3.81063 4.83145 3.42788 5.02649 3.14385 5.31052C2.82096 5.63341 2.61044 6.08675 2.49534 6.94282C2.37686 7.82406 2.375 8.99203 2.375 10.6667V17.6667C2.375 19.3413 2.37686 20.5093 2.49534 21.3905C2.61044 22.2466 2.82096 22.6999 3.14385 23.0228C3.46674 23.3457 3.92007 23.5562 4.77614 23.6713C5.65738 23.7898 6.82535 23.7917 8.5 23.7917H15.5C17.1747 23.7917 18.3426 23.7898 19.2239 23.6713C20.0799 23.5562 20.5333 23.3457 20.8562 23.0228C21.1791 22.6999 21.3896 22.2466 21.5047 21.3905C21.6231 20.5093 21.625 19.3413 21.625 17.6667V10.6667C21.625 8.99203 21.6231 7.82406 21.5047 6.94282C21.3896 6.08675 21.1791 5.63341 20.8562 5.31052C20.5721 5.02649 20.1894 4.83145 19.5281 4.70999C19.0078 4.6144 18.3621 4.57225 17.5242 4.55435C17.3734 5.86073 16.2635 6.87501 14.9167 6.87501H9.08333C7.73653 6.87501 6.62662 5.86073 6.47579 4.55435ZM9.08333 2.20834C8.60009 2.20834 8.20833 2.60009 8.20833 3.08334V4.25001C8.20833 4.73326 8.60009 5.12501 9.08333 5.12501H14.9167C15.3999 5.12501 15.7917 4.73326 15.7917 4.25001V3.08334C15.7917 2.60009 15.3999 2.20834 14.9167 2.20834H9.08333ZM5.29167 11.25C5.29167 10.7668 5.68342 10.375 6.16667 10.375H6.75C7.23325 10.375 7.625 10.7668 7.625 11.25C7.625 11.7333 7.23325 12.125 6.75 12.125H6.16667C5.68342 12.125 5.29167 11.7333 5.29167 11.25ZM9.375 11.25C9.375 10.7668 9.76675 10.375 10.25 10.375H17.8333C18.3166 10.375 18.7083 10.7668 18.7083 11.25C18.7083 11.7333 18.3166 12.125 17.8333 12.125H10.25C9.76675 12.125 9.375 11.7333 9.375 11.25ZM5.29167 15.3333C5.29167 14.8501 5.68342 14.4583 6.16667 14.4583H6.75C7.23325 14.4583 7.625 14.8501 7.625 15.3333C7.625 15.8166 7.23325 16.2083 6.75 16.2083H6.16667C5.68342 16.2083 5.29167 15.8166 5.29167 15.3333ZM9.375 15.3333C9.375 14.8501 9.76675 14.4583 10.25 14.4583H17.8333C18.3166 14.4583 18.7083 14.8501 18.7083 15.3333C18.7083 15.8166 18.3166 16.2083 17.8333 16.2083H10.25C9.76675 16.2083 9.375 15.8166 9.375 15.3333ZM5.29167 19.4167C5.29167 18.9334 5.68342 18.5417 6.16667 18.5417H6.75C7.23325 18.5417 7.625 18.9334 7.625 19.4167C7.625 19.8999 7.23325 20.2917 6.75 20.2917H6.16667C5.68342 20.2917 5.29167 19.8999 5.29167 19.4167ZM9.375 19.4167C9.375 18.9334 9.76675 18.5417 10.25 18.5417H17.8333C18.3166 18.5417 18.7083 18.9334 18.7083 19.4167C18.7083 19.8999 18.3166 20.2917 17.8333 20.2917H10.25C9.76675 20.2917 9.375 19.8999 9.375 19.4167Z" fill="#1C274C"/>
</svg>
