<svg width="26" height="26" viewBox="0 0 26 26" fill="none" xmlns="http://www.w3.org/2000/svg">
<path d="M4.33325 10.8334C4.33325 6.74791 4.33325 4.70516 5.60246 3.43595C6.87166 2.16675 8.91441 2.16675 12.9999 2.16675C17.0854 2.16675 19.1282 2.16675 20.3974 3.43595C21.6666 4.70516 21.6666 6.74791 21.6666 10.8334V13.0001C21.6666 17.0856 21.6666 19.1283 20.3974 20.3975C19.1282 21.6667 17.0854 21.6667 12.9999 21.6667C8.91441 21.6667 6.87166 21.6667 5.60246 20.3975C4.33325 19.1283 4.33325 17.0856 4.33325 13.0001V10.8334Z" stroke="#3263DF" stroke-width="1.5"/>
<path d="M4.33325 14.0833H21.6666" stroke="#3263DF" stroke-width="1.5" stroke-linecap="round" stroke-linejoin="round"/>
<path d="M16.7917 17.3333H18.4167" stroke="#3263DF" stroke-width="1.5" stroke-linecap="round" stroke-linejoin="round"/>
<path d="M7.58325 17.3333H9.20825" stroke="#3263DF" stroke-width="1.5" stroke-linecap="round" stroke-linejoin="round"/>
<path d="M6.5 21.125V22.75C6.5 23.3483 6.98502 23.8333 7.58333 23.8333H9.20833C9.80664 23.8333 10.2917 23.3483 10.2917 22.75V21.6667" stroke="#3263DF" stroke-width="1.5" stroke-linecap="round" stroke-linejoin="round"/>
<path d="M19.4999 21.125V22.75C19.4999 23.3483 19.0149 23.8333 18.4166 23.8333H16.7916C16.1933 23.8333 15.7083 23.3483 15.7083 22.75V21.6667" stroke="#3263DF" stroke-width="1.5" stroke-linecap="round" stroke-linejoin="round"/>
<path d="M21.6667 9.75H22.7501C23.3484 9.75 23.8334 10.235 23.8334 10.8333V11.9167C23.8334 12.2577 23.6729 12.5787 23.4001 12.7833L21.6667 14.0833" stroke="#3263DF" stroke-width="1.5" stroke-linecap="round" stroke-linejoin="round"/>
<path d="M4.33341 9.75H3.25008C2.65177 9.75 2.16675 10.235 2.16675 10.8333V11.9167C2.16675 12.2577 2.32729 12.5787 2.60008 12.7833L4.33341 14.0833" stroke="#3263DF" stroke-width="1.5" stroke-linecap="round" stroke-linejoin="round"/>
<path d="M21.125 5.41675H4.875" stroke="#3263DF" stroke-width="1.5" stroke-linecap="round"/>
</svg>
