<svg width="20" height="19" viewBox="0 0 20 19" fill="none" xmlns="http://www.w3.org/2000/svg">
<path d="M13.1007 12.359L12.5719 11.8272H12.5719L13.1007 12.359ZM13.5562 11.9062L14.085 12.438H14.085L13.5562 11.9062ZM15.9728 11.5894L15.6146 12.2483L15.9728 11.5894ZM17.8833 12.628L17.5251 13.2869L17.8833 12.628ZM18.4217 15.883L18.9505 16.4148L18.4217 15.883ZM17.0011 17.2954L16.4723 16.7636L17.0011 17.2954ZM15.6763 17.9651L15.7459 18.7119H15.7459L15.6763 17.9651ZM5.81536 13.7266L6.34418 13.1947L5.81536 13.7266ZM1.00289 4.74561L0.254096 4.78816L0.254096 4.78816L1.00289 4.74561ZM7.47752 6.19738L8.00634 6.72922H8.00634L7.47752 6.19738ZM7.63424 3.54348L8.23464 3.09401L7.63424 3.54348ZM6.37326 1.85908L5.77286 2.30855V2.30855L6.37326 1.85908ZM3.26145 1.57483L3.79027 2.10667H3.79027L3.26145 1.57483ZM1.69185 3.13552L1.16303 2.60368H1.16303L1.69185 3.13552ZM9.06312 10.4972L9.59194 9.9654L9.06312 10.4972ZM13.6295 12.8909L14.085 12.438L13.0273 11.3743L12.5719 11.8272L13.6295 12.8909ZM15.6146 12.2483L17.5251 13.2869L18.2415 11.9691L16.331 10.9305L15.6146 12.2483ZM17.8929 15.3511L16.4723 16.7636L17.5299 17.8273L18.9505 16.4148L17.8929 15.3511ZM15.6067 17.2184C14.1568 17.3535 10.4056 17.2331 6.34418 13.1947L5.28654 14.2584C9.71865 18.6653 13.9369 18.8805 15.7459 18.7119L15.6067 17.2184ZM6.34418 13.1947C2.4728 9.34533 1.83151 6.10765 1.75168 4.70305L0.254096 4.78816C0.354565 6.55599 1.14863 10.144 5.28654 14.2584L6.34418 13.1947ZM7.71952 7.01441L8.00634 6.72922L6.9487 5.66555L6.66189 5.95073L7.71952 7.01441ZM8.23464 3.09401L6.97365 1.40961L5.77286 2.30855L7.03385 3.99296L8.23464 3.09401ZM2.73263 1.04299L1.16303 2.60368L2.22067 3.66736L3.79027 2.10667L2.73263 1.04299ZM7.1907 6.48257C6.66189 5.95073 6.66117 5.95144 6.66045 5.95216C6.66021 5.9524 6.65949 5.95313 6.659 5.95362C6.65802 5.95461 6.65702 5.95561 6.65601 5.95664C6.65398 5.95871 6.65188 5.96086 6.64972 5.9631C6.64539 5.96759 6.64081 5.97245 6.63599 5.97769C6.62634 5.98816 6.61575 6.00014 6.60441 6.01367C6.58174 6.04072 6.55605 6.07403 6.52905 6.11388C6.47492 6.19377 6.41594 6.2994 6.36589 6.43224C6.26376 6.70329 6.20901 7.0606 6.27765 7.50305C6.41189 8.36833 7.00782 9.51126 8.5343 11.0291L9.59194 9.9654C8.16342 8.54499 7.82314 7.68059 7.75992 7.27309C7.72983 7.07916 7.76104 6.98371 7.76956 6.96111C7.77483 6.94713 7.77733 6.9457 7.77087 6.95525C7.7677 6.95992 7.76238 6.96723 7.75412 6.97708C7.74999 6.98201 7.74512 6.98759 7.73939 6.99381C7.73653 6.99692 7.73345 7.00019 7.73014 7.00362C7.72849 7.00534 7.72678 7.00709 7.72501 7.00889C7.72413 7.00979 7.72323 7.0107 7.72231 7.01162C7.72185 7.01208 7.72116 7.01278 7.72093 7.01301C7.72023 7.01371 7.71952 7.01441 7.1907 6.48257ZM8.5343 11.0291C10.0613 12.5474 11.2096 13.1383 12.0763 13.2713C12.5192 13.3392 12.8763 13.285 13.1472 13.1841C13.28 13.1346 13.3858 13.0763 13.4658 13.0227C13.5058 12.9959 13.5392 12.9704 13.5663 12.9479C13.5799 12.9367 13.5919 12.9262 13.6024 12.9166C13.6077 12.9118 13.6126 12.9073 13.6171 12.903C13.6194 12.9008 13.6215 12.8987 13.6236 12.8967C13.6246 12.8957 13.6256 12.8947 13.6266 12.8937C13.6271 12.8932 13.6279 12.8925 13.6281 12.8923C13.6288 12.8916 13.6295 12.8909 13.1007 12.359C12.5719 11.8272 12.5726 11.8265 12.5733 11.8258C12.5735 11.8256 12.5742 11.8249 12.5747 11.8244C12.5756 11.8235 12.5765 11.8226 12.5774 11.8217C12.5793 11.82 12.581 11.8183 12.5827 11.8166C12.5862 11.8133 12.5895 11.8103 12.5926 11.8074C12.5988 11.8018 12.6044 11.7969 12.6094 11.7929C12.6192 11.7847 12.6265 11.7795 12.631 11.7764C12.6403 11.7702 12.6384 11.773 12.6236 11.7785C12.5991 11.7876 12.501 11.8189 12.3038 11.7886C11.8905 11.7253 11.02 11.3853 9.59194 9.9654L8.5343 11.0291ZM6.97365 1.40961C5.95434 0.0480248 3.94996 -0.16743 2.73263 1.04299L3.79027 2.10667C4.32195 1.578 5.26623 1.63181 5.77286 2.30855L6.97365 1.40961ZM1.75168 4.70305C1.73201 4.35694 1.89075 3.9954 2.22067 3.66736L1.16303 2.60368C0.625711 3.13795 0.203294 3.89425 0.254096 4.78816L1.75168 4.70305ZM16.4723 16.7636C16.1975 17.0369 15.9029 17.1908 15.6067 17.2184L15.7459 18.7119C16.4805 18.6434 17.0824 18.2723 17.5299 17.8273L16.4723 16.7636ZM8.00634 6.72922C8.99084 5.7503 9.06403 4.2019 8.23464 3.09401L7.03385 3.99295C7.43734 4.53193 7.3773 5.23938 6.9487 5.66555L8.00634 6.72922ZM17.5251 13.2869C18.3429 13.7315 18.4703 14.7769 17.8929 15.3511L18.9505 16.4148C20.2908 15.0821 19.8775 12.8584 18.2415 11.9691L17.5251 13.2869ZM14.085 12.438C14.469 12.0562 15.0871 11.9616 15.6146 12.2483L16.331 10.9305C15.2474 10.3414 13.9026 10.5041 13.0273 11.3743L14.085 12.438Z" fill="white"/>
</svg>
