<svg width="14" height="16" viewBox="0 0 14 16" fill="none" xmlns="http://www.w3.org/2000/svg">
<path d="M12.0209 3.40196C11.9147 3.3471 11.8114 3.28695 11.7112 3.22175C11.42 3.02925 11.153 2.80241 10.916 2.54614C10.323 1.86759 10.1015 1.1792 10.0199 0.697229H10.0232C9.95504 0.297172 9.98322 0.0383301 9.98748 0.0383301H7.28635V10.4831C7.28635 10.6233 7.28635 10.7619 7.28045 10.8989C7.28045 10.9159 7.27881 10.9316 7.27783 10.95C7.27783 10.9575 7.27783 10.9654 7.27619 10.9732C7.27619 10.9752 7.27619 10.9772 7.27619 10.9791C7.24772 11.3539 7.12759 11.7159 6.92637 12.0333C6.72514 12.3508 6.449 12.6139 6.12222 12.7995C5.78164 12.9933 5.39644 13.0949 5.00461 13.0944C3.74612 13.0944 2.72615 12.0682 2.72615 10.8009C2.72615 9.53356 3.74612 8.50736 5.00461 8.50736C5.24284 8.50714 5.4796 8.54463 5.70611 8.61844L5.70938 5.86816C5.02177 5.77934 4.32321 5.83399 3.65777 6.02866C2.99234 6.22333 2.37447 6.55379 1.84314 6.9992C1.37758 7.40372 0.986173 7.88637 0.686546 8.42545C0.572524 8.62204 0.142323 9.412 0.0902272 10.6941C0.0574624 11.4218 0.276003 12.1757 0.380195 12.4873V12.4939C0.445725 12.6773 0.699651 13.3035 1.11347 13.8313C1.44716 14.2547 1.8414 14.6267 2.2835 14.9352V14.9286L2.29005 14.9352C3.59769 15.8237 5.04753 15.7654 5.04753 15.7654C5.29851 15.7553 6.13926 15.7654 7.09402 15.3129C8.15298 14.8113 8.75585 14.0639 8.75585 14.0639C9.14099 13.6174 9.44725 13.1085 9.66147 12.5591C9.90589 11.9165 9.98748 11.1459 9.98748 10.8379V5.29675C10.0202 5.3164 10.4567 5.60506 10.4567 5.60506C10.4567 5.60506 11.0854 6.00807 12.0664 6.27051C12.7702 6.45727 13.7184 6.49659 13.7184 6.49659V3.81512C13.3862 3.85116 12.7115 3.74632 12.0209 3.40196Z" fill="#0D6EFD"/>
</svg>
