<svg width="18" height="18" viewBox="0 0 18 18" fill="none" xmlns="http://www.w3.org/2000/svg">
<path d="M5.04548 14.4117L5.64881 14.7642C6.66626 15.3576 7.82347 15.6691 9.00131 15.6667C10.3199 15.6667 11.6088 15.2757 12.7051 14.5431C13.8014 13.8106 14.6559 12.7694 15.1605 11.5512C15.6651 10.333 15.7971 8.99259 15.5399 7.69939C15.2826 6.40618 14.6477 5.2183 13.7154 4.28594C12.783 3.3536 11.5951 2.71866 10.3019 2.46142C9.00871 2.20419 7.66826 2.33621 6.45009 2.84079C5.23192 3.34538 4.19073 4.19986 3.45818 5.29619C2.72564 6.39252 2.33465 7.68145 2.33465 8.99999C2.33221 10.1782 2.64404 11.3358 3.23798 12.3533L3.58965 12.9567L3.04548 14.9575L5.04548 14.4117ZM0.671314 17.3333L1.79798 13.1933C1.05556 11.9207 0.66552 10.4733 0.66798 8.99999C0.66798 4.39749 4.39881 0.666656 9.00131 0.666656C13.6038 0.666656 17.3346 4.39749 17.3346 8.99999C17.3346 13.6025 13.6038 17.3333 9.00131 17.3333C7.52863 17.3357 6.08186 16.946 4.80965 16.2042L0.671314 17.3333ZM5.99381 5.08999C6.10548 5.08166 6.21798 5.08166 6.32965 5.08666C6.37465 5.08999 6.41965 5.09499 6.46465 5.09999C6.59715 5.11499 6.74298 5.19582 6.79215 5.30749C7.04048 5.87082 7.28215 6.43832 7.51548 7.00749C7.56715 7.13416 7.53631 7.29666 7.43798 7.45499C7.38798 7.53582 7.30965 7.64916 7.21881 7.76499C7.12465 7.88582 6.92215 8.10749 6.92215 8.10749C6.92215 8.10749 6.83965 8.20582 6.87131 8.32832C6.88298 8.37499 6.92131 8.44249 6.95631 8.49916L7.00548 8.57832C7.21881 8.93416 7.50548 9.29499 7.85548 9.63499C7.95548 9.73166 8.05298 9.83082 8.15798 9.92332C8.54798 10.2675 8.98965 10.5483 9.46631 10.7567L9.47048 10.7583C9.54131 10.7892 9.57715 10.8058 9.68048 10.85C9.73215 10.8717 9.78548 10.89 9.83965 10.905C9.89562 10.9192 9.95457 10.9166 10.009 10.8973C10.0635 10.878 10.111 10.843 10.1455 10.7967C10.7488 10.0658 10.8038 10.0183 10.8088 10.0183V10.02C10.8507 9.9809 10.9005 9.95123 10.9549 9.93297C11.0092 9.91472 11.0668 9.9083 11.1238 9.91416C11.1738 9.91749 11.2246 9.92666 11.2713 9.94749C11.7138 10.15 12.438 10.4658 12.438 10.4658L12.923 10.6833C13.0046 10.7225 13.0788 10.815 13.0813 10.9042C13.0846 10.96 13.0896 11.05 13.0705 11.215C13.0438 11.4308 12.9788 11.69 12.9138 11.8258C12.8693 11.9185 12.8102 12.0035 12.7388 12.0775C12.6547 12.1658 12.5627 12.2461 12.4638 12.3175C12.3955 12.3692 12.3596 12.3925 12.3596 12.3925C12.256 12.4582 12.1495 12.5194 12.0405 12.5758C11.8259 12.6898 11.5889 12.7552 11.3463 12.7675C11.1921 12.7758 11.038 12.7875 10.883 12.7792C10.8763 12.7792 10.4096 12.7067 10.4096 12.7067C9.22486 12.395 8.12914 11.8112 7.20965 11.0017C7.02131 10.8358 6.84631 10.6575 6.66798 10.48C5.92798 9.74249 5.36715 8.94666 5.02631 8.19499C4.85274 7.82624 4.75902 7.42498 4.75131 7.01749C4.74818 6.51145 4.91386 6.0188 5.22215 5.61749C5.28298 5.53916 5.34048 5.45749 5.43965 5.36332C5.54465 5.26332 5.61215 5.20999 5.68465 5.17332C5.78104 5.12502 5.8862 5.09667 5.99381 5.08999Z" fill="#0D6EFD"/>
</svg>
