<svg width="20" height="14" viewBox="0 0 20 14" fill="none" xmlns="http://www.w3.org/2000/svg">
<path d="M11.6667 7.00001L8.75 8.66668V5.33334L11.6667 7.00001Z" fill="#0D6EFD" stroke="#0D6EFD" stroke-width="2" stroke-linecap="round" stroke-linejoin="round"/>
<path d="M1.66699 7.59001V6.41001C1.66699 3.99751 1.66699 2.79084 2.42116 2.01501C3.17616 1.23834 4.36449 1.20501 6.74033 1.13751C7.86533 1.10584 9.01533 1.08334 10.0003 1.08334C10.9845 1.08334 12.1345 1.10584 13.2603 1.13751C15.6362 1.20501 16.8245 1.23834 17.5787 2.01501C18.3337 2.79084 18.3337 3.99834 18.3337 6.41001V7.58918C18.3337 10.0025 18.3337 11.2083 17.5795 11.985C16.8245 12.7608 15.637 12.795 13.2603 12.8617C12.1353 12.8942 10.9853 12.9167 10.0003 12.9167C8.91346 12.9134 7.82669 12.8951 6.74033 12.8617C4.36449 12.795 3.17616 12.7617 2.42116 11.985C1.66699 11.2083 1.66699 10.0017 1.66699 7.59001Z" stroke="#0D6EFD" stroke-width="2"/>
</svg>
